<svg width="27" height="35" viewBox="0 0 27 35" fill="none" xmlns="http://www.w3.org/2000/svg">
<path d="M0.0340909 35V0.0909081H13.8068C16.4545 0.0909081 18.7102 0.59659 20.5739 1.60795C22.4375 2.60795 23.858 4 24.8352 5.78409C25.8239 7.55682 26.3182 9.60227 26.3182 11.9205C26.3182 14.2386 25.8182 16.2841 24.8182 18.0568C23.8182 19.8295 22.3693 21.2102 20.4716 22.1989C18.5852 23.1875 16.3011 23.6818 13.6193 23.6818H4.84091V17.767H12.4261C13.8466 17.767 15.017 17.5227 15.9375 17.0341C16.8693 16.5341 17.5625 15.8466 18.017 14.9716C18.483 14.0852 18.7159 13.0682 18.7159 11.9205C18.7159 10.7614 18.483 9.75 18.017 8.88636C17.5625 8.01136 16.8693 7.33523 15.9375 6.85795C15.0057 6.36932 13.8239 6.125 12.392 6.125H7.41477V35H0.0340909Z" fill="white"/>
</svg>
